<svg width="34" height="31" viewBox="0 0 34 31" fill="none" xmlns="http://www.w3.org/2000/svg">
<path d="M15.8903 4.42907L17.0007 5.73292L18.111 4.42907C19.6599 2.61015 22.0422 1.45858 24.5007 1.45858C28.8286 1.45858 32.209 4.83899 32.209 9.16691C32.209 11.8379 31.0209 14.3753 28.6322 17.2957C26.2268 20.2365 22.7587 23.385 18.4377 27.3033L18.4356 27.3052L16.9969 28.6149L15.5648 27.321C15.5643 27.3205 15.5638 27.3201 15.5633 27.3197C11.2427 23.3933 7.77487 20.2411 5.36937 17.2982C2.98038 14.3754 1.79232 11.8379 1.79232 9.16691C1.79232 4.83899 5.17273 1.45858 9.50065 1.45858C11.9591 1.45858 14.3414 2.61015 15.8903 4.42907ZM6.16767 17.6026C8.53627 20.3703 11.8988 23.4156 15.8284 26.9737L15.9695 27.1148L17.0007 28.146L18.0318 27.1148L18.1729 26.9737C22.1025 23.4156 25.465 20.3703 27.8336 17.6026C30.1934 14.8453 31.7923 12.1135 31.7923 9.16691C31.7923 5.02816 28.6394 1.87524 24.5007 1.87524C21.7263 1.87524 18.9942 3.43646 17.6471 5.80858H16.3658C15.0088 3.43975 12.2792 1.87524 9.50065 1.87524C5.3619 1.87524 2.20898 5.02816 2.20898 9.16691C2.20898 12.1135 3.80787 14.8453 6.16767 17.6026Z" stroke="#A9A9A9" stroke-width="2.91667"/>
</svg>
